<svg width="26" height="26" viewBox="0 0 26 26" fill="none" xmlns="http://www.w3.org/2000/svg">
<g id="Group 1171280530">
<path id="Vector" d="M13 25C19.6274 25 25 19.6274 25 13C25 6.37258 19.6274 1 13 1C6.37258 1 1 6.37258 1 13C1 19.6274 6.37258 25 13 25Z" stroke="#5498FF" stroke-width="1.5" stroke-linejoin="round"/>
<path id="Vector_2" d="M17 17C17 17 15.8571 18 13 18C10.1429 18 9 17 9 17" stroke="#5498FF" stroke-width="1.5" stroke-linecap="round" stroke-linejoin="round"/>
<path id="Vector_3" d="M11 11C11 11 10.375 10 8.5 10C6.625 10 6 11 6 11" stroke="#5498FF" stroke-width="1.5" stroke-linecap="round" stroke-linejoin="round"/>
<path id="Vector_4" d="M20 11C20 11 19.375 10 17.5 10C15.625 10 15 11 15 11" stroke="#5498FF" stroke-width="1.5" stroke-linecap="round" stroke-linejoin="round"/>
</g>
</svg>
